PathFileType	4	(X/Y/Z)	C:/Users/opensim2020/Desktop/walking_exp_matlab/subject01_walking13_straight_03.trc	
DataRate	CameraRate	NumFrames	NumMarkers	Units	OrigDataRate	OrigDataStartFrame	OrigNumFrames	
100.00	100.00	5	42	mm	100.00	1695	128	
Frame#	Time	LFHD			RFHD			LBHD			RBHD			C7			T10			CLAV			STRN			RBAK			LSHO			LUPA			LELB			LFRM			LWRA			LWRB			LFIN			RSHO			RUPA			RELB			RFRM			RWRA			RWRB			RFIN			LASI			RASI			LPSI			RPSI			LTHI			LKNE			LTIB			LANK			LHEE			LTOE			RTHI			RKNE			RTIB			RANK			RHEE			RTOE			*39			*40			*41			
		X1	Y1	Z1	X2	Y2	Z2	X3	Y3	Z3	X4	Y4	Z4	X5	Y5	Z5	X6	Y6	Z6	X7	Y7	Z7	X8	Y8	Z8	X9	Y9	Z9	X10	Y10	Z10	X11	Y11	Z11	X12	Y12	Z12	X13	Y13	Z13	X14	Y14	Z14	X15	Y15	Z15	X16	Y16	Z16	X17	Y17	Z17	X18	Y18	Z18	X19	Y19	Z19	X20	Y20	Z20	X21	Y21	Z21	X22	Y22	Z22	X23	Y23	Z23	X24	Y24	Z24	X25	Y25	Z25	X26	Y26	Z26	X27	Y27	Z27	X28	Y28	Z28	X29	Y29	Z29	X30	Y30	Z30	X31	Y31	Z31	X32	Y32	Z32	X33	Y33	Z33	X34	Y34	Z34	X35	Y35	Z35	X36	Y36	Z36	X37	Y37	Z37	X38	Y38	Z38	X39	Y39	Z39	X40	Y40	Z40	X41	Y41	Z41	X42	Y42	Z42	

97	0.960	-1100.61792	427.12576	1663.51733	-986.38538	437.79376	1665.62488	-1096.54211	307.86121	1628.40625	-975.66907	316.24338	1629.61536	-1056.43628	257.11865	1433.43555	-1046.88562	207.62212	1140.20142	-1052.93091	396.60663	1357.13135	-1056.19092	431.33624	1200.89197	-976.70758	190.47810	1242.21631	-1213.85632	337.03525	1394.15369	-1296.83093	263.89270	1223.79822	-1296.82532	216.21181	1080.51086	-1320.94067	227.45671	966.04089	-1302.02295	277.72815	835.32288	-1324.94116	222.80655	843.56561	-1336.52905	251.67252	765.11328	-903.47400	331.56873	1389.90527	-790.43811	269.03830	1200.82043	-770.31885	276.66873	1073.93152	-756.48560	359.48050	977.68866	-802.33124	478.92014	920.40088	-758.13617	450.66699	896.16058	-763.86823	525.66223	864.54077	-1150.63184	387.60083	935.48651	-932.18652	374.05170	929.43958	-1111.73596	199.01129	942.07080	-968.38416	190.91832	948.01917	-1230.43628	457.46021	629.49292	-1218.72302	487.37454	497.69330	-1231.59888	451.51929	312.90918	-1189.03687	452.26843	89.53606	-1129.12585	418.34241	57.29342	-1209.38525	593.37299	59.05367	-900.14520	272.78979	600.36859	-933.94000	254.50606	442.30484	-935.27893	174.51842	284.84619	-997.61267	115.47191	88.95086	-1048.37451	60.99201	60.36980	-1006.37897	250.99011	36.15469	-1009.25867	429.38916	1700.62573	-3101.98364	1973.07751	1023.40387	-3140.70337	2012.63184	1022.17444 
98	0.970	-1101.74841	439.31973	1662.23438	-987.47876	449.88321	1664.50317	-1097.79810	320.07211	1627.13062	-976.81720	328.35562	1628.55933	-1057.33057	269.29803	1432.25134	-1047.95569	219.43343	1139.12488	-1053.63855	408.61234	1355.89844	-1056.46155	443.35565	1199.59436	-977.45953	202.38092	1241.26721	-1214.82275	349.27863	1392.62268	-1297.36047	275.14172	1222.49768	-1296.66492	226.38924	1079.70227	-1320.67993	235.60728	965.22119	-1301.90845	283.41882	833.53589	-1324.74341	228.70419	842.85919	-1336.33984	255.90552	763.74591	-904.49402	343.57080	1389.07813	-790.67676	282.04739	1200.21289	-770.14099	290.45306	1073.29871	-756.93286	374.96722	978.33270	-803.46289	495.17545	923.65582	-759.45032	467.68533	898.81458	-765.11981	543.32690	869.24298	-1150.38611	400.09305	933.97406	-931.65594	385.31262	928.49939	-1112.61243	211.24506	941.16107	-969.38037	202.31129	947.74957	-1230.25513	466.54471	626.27350	-1217.57507	497.51944	495.17856	-1231.99268	471.53436	310.10501	-1191.55493	486.31448	86.37145	-1132.44568	452.87714	51.86674	-1208.52722	629.62476	63.66985	-899.90942	280.26266	600.15967	-933.70435	260.58942	442.23801	-935.21484	178.06819	285.83890	-997.53699	116.53614	90.56243	-1048.15442	61.80032	62.32710	-1006.49615	250.81342	36.27126	-1010.15851	441.58069	1699.64197	-3101.89917	1973.11414	1023.45892	-3140.82690	2012.56543	1022.06110 
99	0.980	-1102.95215	451.54086	1660.91040	-988.65845	462.00732	1663.28564	-1098.99072	332.31281	1625.80261	-978.01044	340.43002	1627.40320	-1058.26965	281.44778	1430.95276	-1049.03528	231.41568	1137.95325	-1054.43005	420.69513	1354.63147	-1056.79993	455.37592	1198.27588	-978.21851	214.38309	1240.27332	-1215.76465	361.59747	1391.10645	-1297.97742	286.53635	1221.16284	-1296.60510	236.91194	1078.85315	-1320.68945	244.35663	964.39807	-1301.88489	289.88358	831.80896	-1324.58398	235.25621	842.10541	-1336.33374	260.99109	762.46570	-905.51892	355.75079	1388.17639	-791.09662	295.05075	1199.36230	-770.10126	304.19763	1072.60974	-757.54956	390.17068	978.82440	-804.60394	511.00446	926.57391	-760.55798	484.05731	900.99695	-766.38617	560.41107	873.47784	-1150.13367	412.80566	932.53802	-931.44678	396.51563	927.49005	-1113.49475	223.59326	940.32159	-970.49744	213.89880	947.24225	-1230.00635	475.20529	622.69806	-1216.58838	507.87823	492.78503	-1232.71484	491.37161	307.87204	-1193.79102	518.86444	84.68018	-1135.53870	485.96469	47.64517	-1207.64478	663.76941	69.76045	-899.51971	288.17740	600.12872	-933.19891	266.65225	441.91461	-935.12720	182.05489	286.83130	-997.11957	117.58031	92.18311	-1047.87427	62.20812	65.30629	-1006.35626	250.98035	36.10547	-1011.41571	453.76828	1698.35779	-3102.03687	1973.06885	1023.59583	-3140.65723	2012.51636	1022.19537 
100	0.990	-1104.17896	463.82797	1659.53796	-989.85907	474.17880	1662.02661	-1100.41101	344.55475	1624.50879	-979.35614	352.60944	1626.24109	-1059.25610	293.65155	1429.65845	-1050.15881	243.58441	1136.79248	-1055.33435	432.81943	1353.33447	-1057.25684	467.51880	1196.95691	-979.06317	226.41069	1239.27710	-1216.75793	373.97397	1389.55981	-1298.56946	298.23676	1219.70789	-1296.78992	247.79634	1077.96973	-1320.81079	253.69156	963.43439	-1302.05090	297.00449	830.12604	-1324.95703	242.61723	841.37933	-1336.36108	266.93558	761.15900	-906.57355	367.86246	1387.02454	-791.52441	308.13647	1198.65369	-770.24255	317.84122	1071.92371	-758.13824	405.22778	979.35315	-805.64819	526.65326	929.27399	-761.69141	500.63647	903.10516	-767.65851	576.90143	877.27081	-1149.82312	425.61829	931.10376	-931.54413	407.63840	926.43738	-1114.46179	236.09677	939.28015	-971.69098	225.55563	946.65472	-1230.14490	483.69528	619.12152	-1215.83350	518.65265	490.69208	-1233.30176	511.32648	306.36493	-1195.24548	549.35333	84.19933	-1137.99634	517.27441	44.78964	-1206.54846	695.29248	76.30344	-899.22601	296.34790	599.94775	-932.73639	273.41058	441.69672	-934.84204	186.29939	287.98563	-996.57349	118.72785	94.25593	-1047.23914	62.94987	68.28876	-1006.24359	251.14284	36.06739	-1012.63959	465.91077	1697.10571	-3101.91748	1973.04822	1023.41534	-3140.62134	2012.49927	1022.08948 
101	1.000	-1105.46521	476.16861	1658.25281	-991.16687	486.41586	1660.95203	-1101.75610	356.86691	1623.22559	-980.79816	364.80634	1625.10498	-1060.64624	305.85519	1428.43909	-1051.21399	255.83157	1135.61133	-1056.33203	445.06757	1352.05652	-1057.84314	479.74460	1195.69397	-979.99518	238.48949	1238.30994	-1217.86951	386.43475	1388.03943	-1299.50085	309.95932	1218.29028	-1297.22131	259.09146	1076.86548	-1321.20142	263.60333	962.47833	-1302.21960	304.87994	828.43127	-1325.28833	250.69658	840.53162	-1336.47217	273.71039	759.82892	-907.85486	380.22977	1386.11377	-792.03174	321.41110	1197.95874	-770.50305	331.37088	1071.24524	-758.86932	419.89169	979.75470	-807.00494	541.71387	931.50623	-763.36139	516.03424	904.48810	-768.68909	593.13367	880.79913	-1149.52515	438.55151	929.72498	-931.64038	420.10623	926.14905	-1115.65527	248.72562	938.19629	-973.02051	237.48654	945.89697	-1230.72620	492.36890	615.71649	-1215.01807	530.26520	489.13293	-1233.70398	530.97052	305.47922	-1196.21265	577.61572	84.63020	-1139.66394	546.18542	43.43687	-1205.39075	723.98926	82.25343	-898.79309	304.93619	599.88074	-932.20404	280.55148	441.91016	-934.50018	190.90005	289.25833	-995.94348	120.18271	96.43407	-1046.38879	63.67888	71.54697	-1005.98254	251.54425	35.95586	-1014.08728	478.13486	1695.86450	-3101.91040	1973.07117	1023.54663	-3140.69751	2012.49390	1022.20087 
